# xmcd CD database file
#
# Track frame offsets:
#	150
#	13752
#	29672
#	39065
#	50547
#	66387
#	78785
#	99515
#	111490
#	128872
#	153407
#	162942
#
# Disc length: 2637 seconds
#
# Revision: 0
# Processed by: cddbd v1.5PL3 Copyright (c) Steve Scherf et al.
# Submitted via: CDex 1.50beta8
#
DISCID=980a4b0c
DTITLE=五代豊彦／遊佐慶子 - 森林からのピアノメッセージ
DYEAR=1900
DGENRE=Other
TTITLE0=雨にぬれても
TTITLE1=青い影
TTITLE2=スカボロー・フェア／詠唱
TTITLE3=カッコーワルツ
TTITLE4=イフ
TTITLE5=テネシー・ワルツ
TTITLE6=素直になれなくて
TTITLE7=イエスタデイ
TTITLE8=ウイアー・オール・アローン
TTITLE9=雨音はショパンの調べ
TTITLE10=慕情
TTITLE11=月光の曲
EXTD=
EXTT0=
EXTT1=
EXTT2=
EXTT3=
EXTT4=
EXTT5=
EXTT6=
EXTT7=
EXTT8=
EXTT9=
EXTT10=
EXTT11=
PLAYORDER=
